<?xml version="1.0" encoding="UTF-8"?>
<svg id="Layer_1" xmlns="http://www.w3.org/2000/svg" version="1.1" viewBox="0 0 1080 1080">
  <!-- Generator: Adobe Illustrator 30.3.0, SVG Export Plug-In . SVG Version: 2.1.3 Build 182)  -->
  <defs>
    <style>
      .st0 {
        fill: #fff;
      }
    </style>
  </defs>
  <path class="st0" d="M717.51,622.77l-.08-180.61,44.07-3.9-.03,179.37c.34,3.1,3.1,5.67,6.1,5.61l13.33-.26c3.55-.07,5.61-3.39,5.67-7.08l.07-179.91,43.98-3.75v189.17c-1.14,22.28-14.93,32.53-36.41,34.05-13.98.99-27.64,1.13-41.63.09-20.31-1.5-33.01-11.34-35.07-32.78Z"/>
  <path class="st0" d="M926.55,566.96l-35.87,2.23.11,85.79-44-.07v-224.21s78.31-6.84,78.31-6.84c8.51-.74,16.32,1.6,23.03,6.07,6,5.19,9.29,12.54,9.29,20.86l.02,86.05c0,8.4-3.91,15.71-9.2,21.5-6.2,4.78-13.24,8.09-21.69,8.61ZM914.37,530.28l-.04-65.56c-.18-3.53-2.65-6.19-6.25-5.91l-17.32,1.33v76.39s20-1.12,20-1.12c1.45-.08,3.32-3.23,3.6-5.13Z"/>
  <path class="st0" d="M663.84,606.81l-31.62,1.01-6.24,47.13-42.22.03,30.11-203.71,66.32-6.01,33.12,209.7-42.31.06-7.17-48.2ZM659.17,572.07l-12.47-84.29-10.84,85.59,23.32-1.3Z"/>
  <path class="st0" d="M494.37,654.89l-42.76.11-25.21-68.36-5.77-.2v68.55s-42.84-.06-42.84-.06v-183.1s64.49-5.65,64.49-5.65c7.73-.68,14.73-.82,22.21.79,11.02,2.9,18.92,12.09,18.95,23.98l.17,60.32c.04,15.35-12.13,24.45-27.81,26.35l10.75,3.67,27.83,73.59ZM442.13,549.44l-.03-47.5c-.29-3.05-2.96-5.1-6.01-4.86l-15.49,1.23v58.79s17.92-1.15,17.92-1.15c1.99-1.27,3.5-3.62,3.61-6.51Z"/>
  <path class="st0" d="M323.92,618.79l-31.9,1.13-5.26,35.08-41.91-.06,29.88-173.94,65.25-5.78,17.58,99.63,14.41,80.14-42.2-.08-5.85-36.13ZM318.78,586.6l-11.76-71.68-10.75,73.01,22.51-1.33Z"/>
  <polygon class="st0" points="168.68 654.93 122.56 655 122.56 494.34 168.65 490.24 168.99 556.06 205.77 486.94 248.96 483.38 203.09 568.36 243.39 654.85 198.73 655.03 169.09 592.84 168.68 654.93"/>
  <polygon class="st0" points="520.51 577.34 482.02 462.71 523.38 459.05 541.14 519.1 557.47 456.08 601.85 452.23 561.92 575.35 561.89 655 520.42 654.95 520.51 577.34"/>
</svg>